<svg xmlns="http://www.w3.org/2000/svg" width="800" height="480" viewBox="0 0 800 480" style="max-width:100%;height:auto" font-family="-apple-system, 'Helvetica Neue', Arial, sans-serif">
  <rect width="800" height="480" fill="#ffffff"/>
  <line x1="24" y1="4" x2="776" y2="4" stroke="#e4ddd2" stroke-width="2"/>
  <line x1="24" y1="476" x2="776" y2="476" stroke="#e4ddd2" stroke-width="2"/>

  <rect x="40" y="48" width="6" height="48" rx="3" fill="#e67e22"/>
  <text x="64" y="90" font-size="48" font-weight="800" fill="#1a1a1a">~90%</text>
  <text x="64" y="126" font-size="17" fill="#6b6b6b">of engineering effort</text>
  <text x="64" y="150" font-size="17" fill="#6b6b6b">agent-assisted by spring 2027</text>
  <text x="64" y="184" font-size="13.5" fill="#9a9a9a">Bain &amp; Company, June 2026</text>

  <rect x="420" y="48" width="6" height="48" rx="3" fill="#e67e22"/>
  <text x="444" y="90" font-size="48" font-weight="800" fill="#1a1a1a">75%</text>
  <text x="444" y="126" font-size="17" fill="#6b6b6b">of new code at Google is</text>
  <text x="444" y="150" font-size="17" fill="#6b6b6b">AI-generated, engineer-approved</text>
  <text x="444" y="184" font-size="13.5" fill="#9a9a9a">Sundar Pichai, via Fast Company</text>

  <rect x="40" y="268" width="6" height="48" rx="3" fill="#e67e22"/>
  <text x="64" y="310" font-size="48" font-weight="800" fill="#1a1a1a">21%</text>
  <text x="64" y="346" font-size="17" fill="#6b6b6b">of organizations have mature</text>
  <text x="64" y="370" font-size="17" fill="#6b6b6b">governance for agentic AI</text>
  <text x="64" y="404" font-size="13.5" fill="#9a9a9a">Deloitte, State of AI 2026</text>

  <rect x="420" y="268" width="6" height="48" rx="3" fill="#e67e22"/>
  <text x="444" y="310" font-size="48" font-weight="800" fill="#1a1a1a">~130</text>
  <text x="444" y="346" font-size="17" fill="#6b6b6b">real agentic vendors among</text>
  <text x="444" y="370" font-size="17" fill="#6b6b6b">thousands claiming it</text>
  <text x="444" y="404" font-size="13.5" fill="#9a9a9a">Gartner, June 2025</text>
</svg>
